<svg width="422" height="280" viewBox="0 0 422 280" fill="none" xmlns="http://www.w3.org/2000/svg">
<path d="M121.601 27.978L127.186 33.5629" stroke="#263238" stroke-linecap="round" stroke-linejoin="round"/>
<path d="M127.186 27.978L121.601 33.5629" stroke="#263238" stroke-linecap="round" stroke-linejoin="round"/>
<path d="M399.831 131.136L405.416 136.721" stroke="#263238" stroke-linecap="round" stroke-linejoin="round"/>
<path d="M405.416 131.136L399.831 136.721" stroke="#263238" stroke-linecap="round" stroke-linejoin="round"/>
<path d="M77.4283 220.923L83.0132 226.508" stroke="#263238" stroke-linecap="round" stroke-linejoin="round"/>
<path d="M83.0132 220.923L77.4283 226.508" stroke="#263238" stroke-linecap="round" stroke-linejoin="round"/>
<path d="M244.532 7.48608L250.117 13.0709" stroke="#263238" stroke-linecap="round" stroke-linejoin="round"/>
<path d="M250.117 7.48608L244.532 13.0709" stroke="#263238" stroke-linecap="round" stroke-linejoin="round"/>
<path d="M248.134 263.271L253.719 268.856" stroke="#263238" stroke-linecap="round" stroke-linejoin="round"/>
<path d="M253.719 263.271L248.134 268.856" stroke="#263238" stroke-linecap="round" stroke-linejoin="round"/>
<path d="M307.631 242.78L312.039 247.193" stroke="#263238" stroke-linecap="round" stroke-linejoin="round"/>
<path d="M312.039 242.78L307.631 247.193" stroke="#263238" stroke-linecap="round" stroke-linejoin="round"/>
<path d="M381.311 21.0156L385.719 25.4235" stroke="#263238" stroke-linecap="round" stroke-linejoin="round"/>
<path d="M385.719 21.0156L381.311 25.4235" stroke="#263238" stroke-linecap="round" stroke-linejoin="round"/>
<path d="M194.498 35.4814C194.498 34.7831 194.291 34.1004 193.903 33.5197C193.515 32.9391 192.964 32.4865 192.319 32.2192C191.673 31.952 190.963 31.882 190.278 32.0183C189.593 32.1545 188.964 32.4908 188.47 32.9846C187.977 33.4785 187.64 34.1076 187.504 34.7926C187.368 35.4775 187.438 36.1875 187.705 36.8327C187.972 37.4779 188.425 38.0294 189.006 38.4173C189.586 38.8053 190.269 39.0124 190.967 39.0124C191.904 39.0124 192.802 38.6404 193.464 37.9782C194.126 37.316 194.498 36.4179 194.498 35.4814Z" stroke="#263238" stroke-linecap="round" stroke-linejoin="round"/>
<path d="M25.5642 23.4292C25.5642 22.7308 25.3571 22.0481 24.9691 21.4675C24.5811 20.8868 24.0296 20.4342 23.3844 20.167C22.7392 19.8997 22.0293 19.8298 21.3443 19.966C20.6594 20.1023 20.0302 20.4386 19.5364 20.9324C19.0426 21.4262 18.7063 22.0554 18.57 22.7403C18.4338 23.4253 18.5037 24.1352 18.771 24.7804C19.0382 25.4256 19.4908 25.9771 20.0715 26.3651C20.6521 26.7531 21.3348 26.9602 22.0332 26.9602C22.9697 26.9602 23.8678 26.5882 24.53 25.926C25.1922 25.2638 25.5642 24.3657 25.5642 23.4292Z" stroke="#263238" stroke-linecap="round" stroke-linejoin="round"/>
<path d="M373.379 237.36C373.379 236.661 373.172 235.979 372.784 235.398C372.396 234.817 371.844 234.365 371.199 234.097C370.554 233.83 369.844 233.76 369.159 233.896C368.474 234.033 367.845 234.369 367.351 234.863C366.857 235.357 366.521 235.986 366.384 236.671C366.248 237.356 366.318 238.066 366.585 238.711C366.853 239.356 367.305 239.908 367.886 240.296C368.467 240.683 369.149 240.891 369.848 240.891C370.784 240.891 371.682 240.519 372.344 239.856C373.007 239.194 373.379 238.296 373.379 237.36Z" stroke="#263238" stroke-linecap="round" stroke-linejoin="round"/>
<path d="M83.5191 270.499C83.5191 269.8 83.3121 269.117 82.9241 268.537C82.5361 267.956 81.9846 267.504 81.3394 267.236C80.6942 266.969 79.9842 266.899 79.2993 267.035C78.6143 267.172 77.9852 267.508 77.4914 268.002C76.9975 268.496 76.6612 269.125 76.525 269.81C76.3888 270.495 76.4587 271.205 76.7259 271.85C76.9932 272.495 77.4458 273.046 78.0264 273.434C78.6071 273.822 79.2898 274.03 79.9882 274.03C80.9246 274.03 81.8227 273.657 82.4849 272.995C83.1471 272.333 83.5191 271.435 83.5191 270.499Z" stroke="#263238" stroke-linecap="round" stroke-linejoin="round"/>
<path d="M25.7643 135.514C25.7643 134.815 25.5572 134.133 25.1692 133.552C24.7812 132.971 24.2297 132.519 23.5845 132.251C22.9393 131.984 22.2293 131.914 21.5444 132.051C20.8595 132.187 20.2303 132.523 19.7365 133.017C19.2427 133.511 18.9064 134.14 18.7701 134.825C18.6339 135.51 18.7038 136.22 18.9711 136.865C19.2383 137.51 19.6909 138.062 20.2716 138.45C20.8522 138.838 21.5349 139.045 22.2333 139.045C23.1697 139.045 24.0679 138.673 24.73 138.01C25.3922 137.348 25.7643 136.45 25.7643 135.514Z" stroke="#263238" stroke-linecap="round" stroke-linejoin="round"/>
<path d="M196.811 206.022C196.811 205.324 196.604 204.641 196.216 204.061C195.828 203.48 195.277 203.027 194.632 202.76C193.986 202.493 193.276 202.423 192.591 202.559C191.906 202.696 191.277 203.032 190.783 203.526C190.29 204.019 189.953 204.649 189.817 205.334C189.681 206.019 189.751 206.728 190.018 207.374C190.285 208.019 190.738 208.57 191.319 208.958C191.899 209.346 192.582 209.553 193.28 209.553C194.217 209.553 195.115 209.181 195.777 208.519C196.439 207.857 196.811 206.959 196.811 206.022Z" stroke="#263238" stroke-linecap="round" stroke-linejoin="round"/>
<path d="M414.662 203.827L421.159 204.934" stroke="#263238" stroke-linecap="round" stroke-linejoin="round"/>
<path d="M87.2271 212.719L285.633 181.829L410.519 203.121" stroke="#263238" stroke-linecap="round" stroke-linejoin="round"/>
<path d="M0.841309 226.173L78.5996 214.061" stroke="#263238" stroke-linecap="round" stroke-linejoin="round"/>
<path d="M336.803 39.1882L216.808 53.63L217.044 203.367L337.974 222.647L390.821 211.695L391.057 45.7794L336.803 39.1882Z" fill="#DBDBDB" stroke="#263238" stroke-linecap="round" stroke-linejoin="round"/>
<path d="M385.366 207.064L346.914 201.256" stroke="#263238" stroke-linecap="round" stroke-linejoin="round"/>
<path d="M362.203 110.626C371.772 110.626 379.528 99.9761 379.528 86.8389C379.528 73.7016 371.772 63.0518 362.203 63.0518C352.635 63.0518 344.878 73.7016 344.878 86.8389C344.878 99.9761 352.635 110.626 362.203 110.626Z" fill="white"/>
<path d="M362.203 108.385C370.868 108.385 377.892 98.7385 377.892 86.8396C377.892 74.9407 370.868 65.2947 362.203 65.2947C353.538 65.2947 346.514 74.9407 346.514 86.8396C346.514 98.7385 353.538 108.385 362.203 108.385Z" fill="url(#paint0_linear_456_35)"/>
<path d="M362.203 94.7429C365.382 94.7429 367.959 91.2043 367.959 86.8393C367.959 82.4743 365.382 78.9358 362.203 78.9358C359.024 78.9358 356.448 82.4743 356.448 86.8393C356.448 91.2043 359.024 94.7429 362.203 94.7429Z" fill="#263238" stroke="#263238" stroke-linecap="round" stroke-linejoin="round"/>
<path d="M325.369 84.5029L252.124 86.4979V151.927L327.034 160.084V86.0036L325.369 84.5029Z" fill="#263238" stroke="#263238" stroke-linecap="round" stroke-linejoin="round"/>
<path d="M246.339 137.568C255.908 137.568 263.665 126.918 263.665 113.781C263.665 100.643 255.908 89.9937 246.339 89.9937C236.771 89.9937 229.014 100.643 229.014 113.781C229.014 126.918 236.771 137.568 246.339 137.568Z" fill="white"/>
<path d="M246.339 135.326C255.004 135.326 262.029 125.68 262.029 113.781C262.029 101.882 255.004 92.2361 246.339 92.2361C237.674 92.2361 230.65 101.882 230.65 113.781C230.65 125.68 237.674 135.326 246.339 135.326Z" fill="url(#paint1_linear_456_35)"/>
<path d="M246.339 121.685C249.518 121.685 252.095 118.146 252.095 113.781C252.095 109.416 249.518 105.878 246.339 105.878C243.161 105.878 240.584 109.416 240.584 113.781C240.584 118.146 243.161 121.685 246.339 121.685Z" fill="#263238" stroke="#263238" stroke-linecap="round" stroke-linejoin="round"/>
<path d="M362.203 158.977C371.772 158.977 379.528 148.327 379.528 135.19C379.528 122.053 371.772 111.403 362.203 111.403C352.635 111.403 344.878 122.053 344.878 135.19C344.878 148.327 352.635 158.977 362.203 158.977Z" fill="white"/>
<path d="M362.203 156.735C370.868 156.735 377.892 147.089 377.892 135.19C377.892 123.291 370.868 113.645 362.203 113.645C353.538 113.645 346.514 123.291 346.514 135.19C346.514 147.089 353.538 156.735 362.203 156.735Z" fill="url(#paint2_linear_456_35)"/>
<path d="M362.203 143.094C365.382 143.094 367.959 139.556 367.959 135.191C367.959 130.826 365.382 127.287 362.203 127.287C359.024 127.287 356.448 130.826 356.448 135.191C356.448 139.556 359.024 143.094 362.203 143.094Z" fill="#263238" stroke="#263238" stroke-linecap="round" stroke-linejoin="round"/>
<path d="M362.203 207.335C371.772 207.335 379.528 196.685 379.528 183.548C379.528 170.41 371.772 159.76 362.203 159.76C352.635 159.76 344.878 170.41 344.878 183.548C344.878 196.685 352.635 207.335 362.203 207.335Z" fill="white"/>
<path d="M362.203 205.092C370.868 205.092 377.892 195.446 377.892 183.547C377.892 171.648 370.868 162.002 362.203 162.002C353.538 162.002 346.514 171.648 346.514 183.547C346.514 195.446 353.538 205.092 362.203 205.092Z" fill="url(#paint3_linear_456_35)"/>
<path d="M362.203 191.451C365.382 191.451 367.959 187.912 367.959 183.547C367.959 179.182 365.382 175.644 362.203 175.644C359.024 175.644 356.448 179.182 356.448 183.547C356.448 187.912 359.024 191.451 362.203 191.451Z" fill="#263238" stroke="#263238" stroke-linecap="round" stroke-linejoin="round"/>
<path d="M299.563 110.221C299.242 110.221 298.926 110.146 298.639 110.003C295.803 108.585 291.577 104.253 288.635 99.7043C285.786 95.3376 282.838 88.9348 284.974 83.2734C286.016 80.5134 290.194 75.8583 314.358 67.2486C327.305 62.6407 340.005 59.0626 340.128 59.0096C340.396 58.9215 340.678 58.8884 340.958 58.9124C341.239 58.9364 341.512 59.017 341.76 59.1493C342.009 59.2816 342.228 59.4629 342.404 59.6823C342.581 59.9016 342.711 60.1544 342.787 60.4255C342.863 60.6965 342.883 60.9802 342.846 61.2593C342.81 61.5384 342.717 61.8072 342.574 62.0494C342.43 62.2916 342.239 62.5023 342.012 62.6686C341.785 62.835 341.526 62.9536 341.252 63.0173C320.731 68.7728 290.906 79.3128 288.876 84.7211C287.269 88.9701 290.224 94.502 292.124 97.415C295.196 102.123 298.945 105.483 300.511 106.243C300.93 106.452 301.267 106.797 301.466 107.222C301.665 107.646 301.714 108.126 301.606 108.583C301.497 109.039 301.238 109.445 300.869 109.735C300.5 110.025 300.044 110.182 299.575 110.18L299.563 110.221Z" fill="white" stroke="#263238" stroke-linecap="round" stroke-linejoin="round"/>
<path d="M298.068 122.543C297.649 122.547 297.238 122.422 296.891 122.184C291.006 118.194 288.77 109.855 290.33 97.3969C291.042 91.6708 293.731 86.492 298.569 81.5722C305.042 74.9633 315.529 68.7488 329.759 63.0933C361.538 50.4877 376.445 54.6896 377.068 54.8543C377.589 55.0166 378.026 55.3773 378.283 55.8586C378.54 56.3399 378.598 56.903 378.443 57.4263C378.288 57.9497 377.934 58.3912 377.457 58.6554C376.979 58.9196 376.417 58.9854 375.891 58.8385C375.691 58.7855 361.432 54.9779 331.301 66.9362C307.967 76.1933 295.92 86.3213 294.473 97.8912C293.125 108.667 294.726 115.676 299.234 118.712C299.603 118.963 299.882 119.325 300.03 119.747C300.178 120.168 300.187 120.625 300.055 121.052C299.923 121.478 299.658 121.851 299.298 122.116C298.938 122.38 298.503 122.522 298.057 122.52L298.068 122.543Z" fill="white" stroke="#263238" stroke-linecap="round" stroke-linejoin="round"/>
<path d="M295.726 140.151V143.759H308.808L310.615 141.505H316.253V94.366L310.615 93.2361L307.908 90.7585H297.533L295.726 96.1727V140.151Z" fill="white" stroke="#263238" stroke-linecap="round" stroke-linejoin="round"/>
<path d="M304.971 96.1672H295.726V140.146H304.971V96.1672Z" fill="url(#paint4_linear_456_35)" stroke="white" stroke-linecap="round" stroke-linejoin="round"/>
<path d="M332.266 118.048L310.839 116.471V136.538L331.36 139.475L332.266 118.048Z" fill="white" stroke="#263238" stroke-linecap="round" stroke-linejoin="round"/>
<path d="M311.08 118.912L332.007 120.695" stroke="#263238" stroke-linecap="round" stroke-linejoin="round"/>
<path d="M310.856 122.361L331.895 124.703" stroke="#263238" stroke-linecap="round" stroke-linejoin="round"/>
<path d="M310.969 125.704L331.678 128.152" stroke="#263238" stroke-linecap="round" stroke-linejoin="round"/>
<path d="M310.856 129.041L331.677 131.712" stroke="#263238" stroke-linecap="round" stroke-linejoin="round"/>
<path d="M310.633 131.936L331.342 134.832" stroke="#263238" stroke-linecap="round" stroke-linejoin="round"/>
<path d="M310.745 134.608L331.23 137.839" stroke="#263238" stroke-linecap="round" stroke-linejoin="round"/>
<path d="M310.839 116.47V104.329L312.192 105.106V116.464L310.839 116.47Z" fill="#263238" stroke="#263238" stroke-linecap="round" stroke-linejoin="round"/>
<path d="M228.473 145.601V195.04L231.892 195.399V146.142L228.473 145.601Z" fill="#263238" stroke="#263238" stroke-linecap="round" stroke-linejoin="round"/>
<path d="M231.892 146.143L272.245 144.059V149.821L332.596 156.488V177.745L321.791 180.811L271.704 174.326V186.931L330.436 195.582V211.972L231.892 195.4V146.143Z" fill="#ABABAB" stroke="#263238" stroke-linecap="round" stroke-linejoin="round"/>
<path d="M272.245 149.821L231.709 152.628L311.157 158.471L332.596 156.488L272.245 149.821Z" fill="#ABABAB" stroke="#263238" stroke-linecap="round" stroke-linejoin="round"/>
<path d="M311.157 158.471V179.186L321.791 180.811L332.596 177.745V156.488L311.157 158.471Z" fill="#263238" stroke="#263238" stroke-linecap="round" stroke-linejoin="round"/>
<path d="M231.709 152.627V170.629L271.704 174.325L311.157 179.186V158.471L231.709 152.627Z" fill="#263238" stroke="#263238" stroke-linecap="round" stroke-linejoin="round"/>
<path d="M248.517 171.542L253.019 163.108L285.351 166.339L287.599 168.729" stroke="white" stroke-linecap="round" stroke-linejoin="round"/>
<path d="M291.701 160.649C291.701 160.649 287.582 162.809 288.459 171.101C289.335 179.393 297.468 190.015 303.595 193.799C309.721 197.583 324.127 199.743 326.293 199.561C328.459 199.378 329.712 199.202 329.712 199.202V190.898C326.16 191.745 322.459 191.745 318.907 190.898C313.323 189.456 302.512 174.143 301.252 170.889C299.993 167.635 302.871 164.221 302.871 164.221V161.532L291.701 160.649Z" fill="white" stroke="#263238" stroke-linecap="round" stroke-linejoin="round"/>
<path d="M297.109 161.355C297.109 161.355 293.501 163.156 295.125 171.083C296.75 179.01 303.594 188.555 311.339 193.599C319.083 198.642 326.11 197.565 326.11 197.565" stroke="#263238" stroke-linecap="round" stroke-linejoin="round"/>
<path d="M302.87 161.532C301.72 162.57 300.815 163.851 300.221 165.282C299.628 166.713 299.361 168.259 299.439 169.806C299.728 175.062 307.908 183.677 311.486 187.461" stroke="#263238" stroke-linecap="round" stroke-linejoin="round"/>
<path d="M298.416 162.867C298.416 162.867 296.65 166.081 297.686 171.695C298.722 177.309 307.979 188.344 314.117 192.292" stroke="#263238" stroke-linecap="round" stroke-linejoin="round"/>
<path d="M293.961 160.749C293.961 160.749 291.842 161.844 292.06 167.976C292.278 174.108 297.174 184.118 303.6 190.545" stroke="#263238" stroke-linecap="round" stroke-linejoin="round"/>
<path d="M290.018 169.147C290.018 169.147 289.305 175.362 296.226 184.995" stroke="#263238" stroke-linecap="round" stroke-linejoin="round"/>
<path d="M316.965 192.881C320.96 193.744 325.008 194.333 329.083 194.646" stroke="#263238" stroke-linecap="round" stroke-linejoin="round"/>
<path d="M228.473 145.601L256.338 143.623L272.245 144.059L231.892 146.142L228.473 145.601Z" fill="white" stroke="#263238" stroke-linecap="round" stroke-linejoin="round"/>
<path d="M232.139 181.852L262.77 177.762V185.595L232.021 191.903L231.892 195.399L271.704 186.931V174.325L260.198 173.319L231.903 175.19L232.139 181.852Z" fill="#263238" stroke="#263238" stroke-linecap="round" stroke-linejoin="round"/>
<path d="M234.181 198.254V205.563C234.181 207.422 245.857 208.935 260.257 208.935C274.658 208.935 286.363 207.422 286.363 205.563V198.254H234.181Z" fill="white"/>
<path d="M260.257 201.626C274.659 201.626 286.334 200.116 286.334 198.254C286.334 196.391 274.659 194.882 260.257 194.882C245.856 194.882 234.181 196.391 234.181 198.254C234.181 200.116 245.856 201.626 260.257 201.626Z" fill="url(#paint5_linear_456_35)"/>
<path d="M264.965 197.619C264.965 198.207 261.881 198.672 258.08 198.672C254.278 198.672 251.188 198.201 251.188 197.619C251.188 197.036 254.272 196.565 258.08 196.565C261.887 196.565 264.965 197.036 264.965 197.619Z" fill="#263238" stroke="#263238" stroke-linecap="round" stroke-linejoin="round"/>
<path d="M289.964 202.562L289.753 209.871C289.7 211.736 301.328 215.832 315.723 216.244C330.118 216.656 341.835 215.485 341.888 213.62L342.094 204.062L289.964 202.562Z" fill="white"/>
<path d="M342.094 204.062C342.041 205.928 330.324 207.099 315.935 206.687C301.546 206.275 289.912 204.427 289.965 202.567C290.018 200.708 301.735 199.531 316.129 199.949C330.524 200.366 342.147 202.202 342.094 204.062Z" fill="url(#paint6_linear_456_35)"/>
<path d="M320.755 202.815C320.755 203.404 317.642 203.78 313.84 203.674C310.038 203.568 306.961 203.021 306.961 202.433C306.961 201.844 310.074 201.467 313.875 201.579C317.677 201.691 320.773 202.232 320.755 202.815Z" fill="#263238" stroke="#263238" stroke-linecap="round" stroke-linejoin="round"/>
<path d="M231.491 52.6119V60.739L262.499 64.5231L359.301 56.2017V43.7256L336.803 39.1882L231.491 52.6119Z" fill="#263238"/>
<path d="M231.491 60.7393L326.216 50.5288L359.301 56.2019L262.499 64.5233L231.491 60.7393Z" fill="white"/>
<path d="M289.559 107.978H281.614C279.303 107.978 277.43 109.852 277.43 112.162V124.768C277.43 127.079 279.303 128.952 281.614 128.952H289.559C291.87 128.952 293.743 127.079 293.743 124.768V112.162C293.743 109.852 291.87 107.978 289.559 107.978Z" fill="white" stroke="#263238" stroke-linecap="round" stroke-linejoin="round"/>
<path d="M288.04 111.491H283.132C281.494 111.491 280.166 112.819 280.166 114.457V122.461C280.166 124.099 281.494 125.427 283.132 125.427H288.04C289.678 125.427 291.006 124.099 291.006 122.461V114.457C291.006 112.819 289.678 111.491 288.04 111.491Z" fill="url(#paint7_linear_456_35)"/>
<path d="M337.021 35.0635L337.733 225.972L392.463 214.073L392.94 43.632L337.021 35.0635ZM389.156 209.318L344.165 218.145L344.624 42.9494L389.144 50.3291L389.156 209.318Z" fill="#263238" stroke="#263238" stroke-linecap="round" stroke-linejoin="round"/>
<path d="M337.021 35.0635L213.713 51.2531V205.51L337.733 225.972L337.021 35.0635ZM219.904 201.255L218.95 55.5668L328.688 43.6379L329.406 219.552L219.904 201.255Z" fill="#707070" stroke="#263238" stroke-linecap="round" stroke-linejoin="round"/>
<path d="M263.376 67.0952V82.8611" stroke="#263238" stroke-linecap="round" stroke-linejoin="round"/>
<path d="M141.493 248.924C141.493 248.924 172.783 257.122 175.655 256.928C178.527 256.733 306.202 229.639 307.155 229.062C308.108 228.485 309.638 225.437 309.638 225.437L305.054 223.719C305.054 223.719 263.065 215.515 260.97 215.897C258.875 216.28 122.979 237.272 121.643 238.608C120.307 239.944 118.4 241.279 118.971 241.85C119.542 242.421 141.493 248.924 141.493 248.924Z" fill="#263238" stroke="#263238" stroke-linecap="round" stroke-linejoin="round"/>
<path d="M126.986 240.708L171.8 251.195L304.636 224.26" stroke="#B8B8B8" stroke-linecap="round" stroke-linejoin="round"/>
<path d="M174.231 252.331L176.179 253.625L307.749 226.207" stroke="#B8B8B8" stroke-linecap="round" stroke-linejoin="round"/>
<path d="M135.066 240.809L136.72 239.308L170.023 247.411L170.176 249.813" stroke="#B8B8B8" stroke-linecap="round" stroke-linejoin="round"/>
<path d="M170.023 247.411L176.002 246.522L177.862 248.806" stroke="#B8B8B8" stroke-linecap="round" stroke-linejoin="round"/>
<path d="M178.432 248.447L179.003 246.446L184.07 245.234L185.783 247.164L186.495 245.022L198.63 242.597L200.419 244.734" stroke="#B8B8B8" stroke-linecap="round" stroke-linejoin="round"/>
<path d="M202.273 243.88L203.203 241.95L207.628 240.808L209.482 242.809" stroke="#B8B8B8" stroke-linecap="round" stroke-linejoin="round"/>
<path d="M210.194 242.521L210.765 240.308L214.266 239.596L216.12 240.949L217.191 239.025L221.117 238.384L222.476 239.525" stroke="#B8B8B8" stroke-linecap="round" stroke-linejoin="round"/>
<path d="M136.72 239.308L142.099 238.525L143.741 239.096L144.382 237.742L145.812 237.595H148.307L150.167 237.171L151.662 236.242H155.446L158.518 236.171L159.159 235.382L163.655 234.741L166.651 235.241L168.152 233.387L172.648 233.17L174.219 233.246L175.29 232.457L186.925 230.674L189.279 230.957L190.497 229.603L201.06 228.32L205.268 228.962L206.127 230.033" stroke="#B8B8B8" stroke-linecap="round" stroke-linejoin="round"/>
<path d="M197.847 232.028L205.056 230.533" stroke="#B8B8B8" stroke-linecap="round" stroke-linejoin="round"/>
<path d="M206.769 230.463L216.544 232.976L209.77 234.6L200.06 232.599" stroke="#B8B8B8" stroke-linecap="round" stroke-linejoin="round"/>
<path d="M209.764 234.6V238.096" stroke="#B8B8B8" stroke-linecap="round" stroke-linejoin="round"/>
<path d="M221.116 238.383L214.908 236.953L211.053 237.383L210.553 238.525" stroke="#B8B8B8" stroke-linecap="round" stroke-linejoin="round"/>
<path d="M214.266 239.596L207.34 238.095L204.915 239.095L204.556 239.666" stroke="#B8B8B8" stroke-linecap="round" stroke-linejoin="round"/>
<path d="M210.765 240.308L206.91 239.455" stroke="#B8B8B8" stroke-linecap="round" stroke-linejoin="round"/>
<path d="M217.191 239.025L212.554 238.166" stroke="#B8B8B8" stroke-linecap="round" stroke-linejoin="round"/>
<path d="M203.203 241.95L197.276 239.955L202.132 239.237L207.057 240.308" stroke="#B8B8B8" stroke-linecap="round" stroke-linejoin="round"/>
<path d="M196.776 236.953L201.413 238.383L206.198 237.312L201.772 235.882L196.776 236.953Z" stroke="#B8B8B8" stroke-linecap="round" stroke-linejoin="round"/>
<path d="M196.776 236.953L195.134 238.737L197.135 239.454" stroke="#B8B8B8" stroke-linecap="round" stroke-linejoin="round"/>
<path d="M206.198 237.312L207.339 238.094" stroke="#B8B8B8" stroke-linecap="round" stroke-linejoin="round"/>
<path d="M198.63 242.592L168.793 235.741" stroke="#B8B8B8" stroke-linecap="round" stroke-linejoin="round"/>
<path d="M145.241 239.525L174.719 246.305" stroke="#B8B8B8" stroke-linecap="round" stroke-linejoin="round"/>
<path d="M146.165 238.454L178.074 245.951" stroke="#B8B8B8" stroke-linecap="round" stroke-linejoin="round"/>
<path d="M150.808 237.813L182.929 244.804" stroke="#B8B8B8" stroke-linecap="round" stroke-linejoin="round"/>
<path d="M158.377 236.671L184 242.38L189.849 241.238" stroke="#B8B8B8" stroke-linecap="round" stroke-linejoin="round"/>
<path d="M211.641 237.377L212.86 234.764L227.913 231.763L232.468 232.875L292.23 222.106L297.909 223.083L299.934 224.978" stroke="#B8B8B8" stroke-linecap="round" stroke-linejoin="round"/>
<path d="M297.91 223.083L238.942 235.035L239.595 236.93" stroke="#B8B8B8" stroke-linecap="round" stroke-linejoin="round"/>
<path d="M242.008 231.245L247.493 233.011L248.993 234.576" stroke="#B8B8B8" stroke-linecap="round" stroke-linejoin="round"/>
<path d="M249.976 229.68L256.244 231.575L257.421 232.946" stroke="#B8B8B8" stroke-linecap="round" stroke-linejoin="round"/>
<path d="M281.779 224.131L287.07 225.372L288.311 226.414" stroke="#B8B8B8" stroke-linecap="round" stroke-linejoin="round"/>
<path d="M288.635 222.953L293.013 224.26L293.861 225.372" stroke="#B8B8B8" stroke-linecap="round" stroke-linejoin="round"/>
<path d="M219.021 237.318L220.328 235.882L225.942 237.518L236.653 235.494L231.233 233.728" stroke="#B8B8B8" stroke-linecap="round" stroke-linejoin="round"/>
<path d="M236.653 235.494L237.5 237.318" stroke="#B8B8B8" stroke-linecap="round" stroke-linejoin="round"/>
<path d="M238.942 235.035L234.434 233.534" stroke="#B8B8B8" stroke-linecap="round" stroke-linejoin="round"/>
<path d="M220.328 235.883L229.797 234.058" stroke="#B8B8B8" stroke-linecap="round" stroke-linejoin="round"/>
<path d="M213.342 235.1L216.803 236.147" stroke="#B8B8B8" stroke-linecap="round" stroke-linejoin="round"/>
<path d="M157.529 239.078L158.359 237.972L161.131 237.348" stroke="#B8B8B8" stroke-linecap="round" stroke-linejoin="round"/>
<path d="M164.326 240.814L165.015 239.702L167.516 238.943" stroke="#B8B8B8" stroke-linecap="round" stroke-linejoin="round"/>
<path d="M172.088 241.992L172.783 241.297L175.972 240.744" stroke="#B8B8B8" stroke-linecap="round" stroke-linejoin="round"/>
<path d="M162.037 245.181L164.809 244.351" stroke="#B8B8B8" stroke-linecap="round" stroke-linejoin="round"/>
<path d="M156.623 243.797L158.5 243.103" stroke="#B8B8B8" stroke-linecap="round" stroke-linejoin="round"/>
<path d="M143.034 240.326L146.289 240.05" stroke="#B8B8B8" stroke-linecap="round" stroke-linejoin="round"/>
<path d="M148.096 241.58L151.491 241.162" stroke="#B8B8B8" stroke-linecap="round" stroke-linejoin="round"/>
<path d="M174.937 237.136L176.532 235.753L180.275 236.724V237.554" stroke="#B8B8B8" stroke-linecap="round" stroke-linejoin="round"/>
<path d="M180.828 236.789L184.853 235.889L186.307 236.93L187.207 235.13L191.439 234.223L193.104 235.818L194.075 234.017L198.377 233.323L200.042 234.847" stroke="#B8B8B8" stroke-linecap="round" stroke-linejoin="round"/>
<path d="M177.985 235.264L193.94 232.216L196.917 232.84" stroke="#B8B8B8" stroke-linecap="round" stroke-linejoin="round"/>
<path d="M184.853 235.888L181.869 234.711" stroke="#B8B8B8" stroke-linecap="round" stroke-linejoin="round"/>
<path d="M187.207 235.129L184.435 234.364" stroke="#B8B8B8" stroke-linecap="round" stroke-linejoin="round"/>
<path d="M194.075 234.017L190.403 233.252" stroke="#B8B8B8" stroke-linecap="round" stroke-linejoin="round"/>
<path d="M174.219 233.246L180.134 234.782" stroke="#B8B8B8" stroke-linecap="round" stroke-linejoin="round"/>
<path d="M175.767 232.628L182.493 234.435" stroke="#B8B8B8" stroke-linecap="round" stroke-linejoin="round"/>
<path d="M181.04 231.934L186.795 233.67" stroke="#B8B8B8" stroke-linecap="round" stroke-linejoin="round"/>
<path d="M183.188 231.451L188.737 233.464L191.438 234.223" stroke="#B8B8B8" stroke-linecap="round" stroke-linejoin="round"/>
<path d="M189.914 231.245L192.551 232.005" stroke="#B8B8B8" stroke-linecap="round" stroke-linejoin="round"/>
<path d="M190.497 229.604L196.294 230.828L196.711 232.281" stroke="#B8B8B8" stroke-linecap="round" stroke-linejoin="round"/>
<path d="M202.608 227.773L265.995 217.439" stroke="#B8B8B8" stroke-linecap="round" stroke-linejoin="round"/>
<path d="M208.175 229.68L272.769 218.763" stroke="#B8B8B8" stroke-linecap="round" stroke-linejoin="round"/>
<path d="M213.125 231.434L279.772 219.793" stroke="#B8B8B8" stroke-linecap="round" stroke-linejoin="round"/>
<path d="M229.603 231.228L286.675 221.029" stroke="#B8B8B8" stroke-linecap="round" stroke-linejoin="round"/>
<path d="M256.679 218.869L282.679 223.618" stroke="#B8B8B8" stroke-linecap="round" stroke-linejoin="round"/>
<path d="M263.076 217.975L286.463 222.724" stroke="#B8B8B8" stroke-linecap="round" stroke-linejoin="round"/>
<path d="M272.981 225.613L252.895 219.905" stroke="#B8B8B8" stroke-linecap="round" stroke-linejoin="round"/>
<path d="M266.448 226.849L248.223 221.14" stroke="#B8B8B8" stroke-linecap="round" stroke-linejoin="round"/>
<path d="M256.338 228.773L238.795 222.312" stroke="#B8B8B8" stroke-linecap="round" stroke-linejoin="round"/>
<path d="M250.765 229.809L233.704 223.271" stroke="#B8B8B8" stroke-linecap="round" stroke-linejoin="round"/>
<path d="M244.438 230.974L227.86 224.166" stroke="#B8B8B8" stroke-linecap="round" stroke-linejoin="round"/>
<path d="M237.424 232.075L221.669 225.06" stroke="#B8B8B8" stroke-linecap="round" stroke-linejoin="round"/>
<path d="M228.343 232.146L215.272 226.096" stroke="#B8B8B8" stroke-linecap="round" stroke-linejoin="round"/>
<path d="M222.223 232.905L209.358 226.985" stroke="#B8B8B8" stroke-linecap="round" stroke-linejoin="round"/>
<path d="M160.595 233.934L162.108 232.216" stroke="#B8B8B8" stroke-linecap="round" stroke-linejoin="round"/>
<path d="M167.404 231.321L170.358 232.422" stroke="#B8B8B8" stroke-linecap="round" stroke-linejoin="round"/>
<path d="M173.73 230.427L176.896 231.457" stroke="#B8B8B8" stroke-linecap="round" stroke-linejoin="round"/>
<path d="M181.299 228.979L185.283 230.356" stroke="#B8B8B8" stroke-linecap="round" stroke-linejoin="round"/>
<path d="M188.725 227.744L193.057 228.774" stroke="#B8B8B8" stroke-linecap="round" stroke-linejoin="round"/>
<path d="M194.775 226.714L199.177 228.085" stroke="#B8B8B8" stroke-linecap="round" stroke-linejoin="round"/>
<path d="M201.378 225.613L204.821 226.643" stroke="#B8B8B8" stroke-linecap="round" stroke-linejoin="round"/>
<path d="M216.514 223.271L219.398 224.166" stroke="#B8B8B8" stroke-linecap="round" stroke-linejoin="round"/>
<path d="M222.564 222.241L225.865 223.065" stroke="#B8B8B8" stroke-linecap="round" stroke-linejoin="round"/>
<path d="M227.931 221.276L231.233 221.9" stroke="#B8B8B8" stroke-linecap="round" stroke-linejoin="round"/>
<path d="M235.428 220.246L238.936 221.276" stroke="#B8B8B8" stroke-linecap="round" stroke-linejoin="round"/>
<path d="M242.167 219.216L246.157 220.04" stroke="#B8B8B8" stroke-linecap="round" stroke-linejoin="round"/>
<path d="M247.187 218.251L251.177 219.216" stroke="#B8B8B8" stroke-linecap="round" stroke-linejoin="round"/>
<path d="M252.83 217.427L256.197 218.322" stroke="#B8B8B8" stroke-linecap="round" stroke-linejoin="round"/>
<path d="M145.123 251.966C145.123 251.966 138.244 242.997 126.986 240.684C115.728 238.371 109.619 242.403 104.081 245.457C98.5437 248.511 93.2061 250.989 93.7769 253.278C94.0832 254.38 94.6141 255.407 95.3361 256.294C96.0582 257.181 96.9559 257.91 97.9729 258.433C99.6913 259.198 116.299 265.113 124.126 265.878C131.953 266.643 141.298 264.542 144.164 261.676C147.03 258.81 145.123 251.966 145.123 251.966Z" fill="#A3A3A3" stroke="#263238" stroke-linecap="round" stroke-linejoin="round"/>
<path d="M143.388 250.03C140.686 247.258 134.931 242.321 126.986 240.708C115.728 238.419 109.619 242.427 104.082 245.481C103.028 246.069 101.987 246.617 100.986 247.158C102.163 246.882 110.308 245.075 114.198 247.193C118.4 249.489 126.033 252.731 134.236 252.731C138.903 252.731 141.775 251.378 143.388 250.03Z" fill="#707070" stroke="#263238" stroke-linecap="round" stroke-linejoin="round"/>
<path d="M145.659 258.128C141.949 260.398 137.646 261.508 133.3 261.317C122.425 260.935 118.035 253.873 111.161 250.059C104.287 246.246 93.7946 253.302 93.7946 253.302C94.1009 254.404 94.6317 255.431 95.3538 256.318C96.0759 257.205 96.9736 257.934 97.9906 258.457C99.709 259.222 116.316 265.137 124.143 265.902C131.97 266.667 141.316 264.566 144.182 261.7C145.056 260.705 145.576 259.449 145.659 258.128Z" fill="#263238" stroke="#263238" stroke-linecap="round" stroke-linejoin="round"/>
<path d="M32.5493 43.3201L29.6598 45.062L45.6022 198.195L48.2505 197.083L32.5493 43.3201Z" fill="#A3A3A3" stroke="#263238" stroke-linecap="round" stroke-linejoin="round"/>
<path d="M123.626 188.897L111.149 225.113L140.021 218.963C140.021 218.963 134.895 215.379 135.584 209.912C136.272 204.445 143.27 187.702 143.27 187.702L123.626 188.897Z" fill="#A3A3A3" stroke="#263238" stroke-linecap="round" stroke-linejoin="round"/>
<path d="M135.584 209.889C136.266 204.421 143.269 187.679 143.269 187.679L129.446 188.52C128.339 191.71 122.048 209.118 121.742 213.99C121.615 215.532 121.88 217.08 122.512 218.492C123.143 219.903 124.122 221.132 125.356 222.065L140.021 218.94C140.021 218.94 134.895 215.379 135.584 209.889Z" fill="#263238" stroke="#263238" stroke-linecap="round" stroke-linejoin="round"/>
<path d="M32.5494 43.3201L48.2506 197.083L226.607 180.493L210.906 64.0588L32.5494 43.3201Z" fill="#263238" stroke="#263238" stroke-linecap="round" stroke-linejoin="round"/>
<path d="M38.7698 49.54L53.8824 190.268L220.981 175.755L207.651 69.6843L38.7698 49.54Z" fill="#1EA8F3" stroke="#263238" stroke-linecap="round" stroke-linejoin="round"/>
<path d="M146.885 117.064C153.564 113.047 155.11 103.36 150.338 95.4277C145.567 87.4958 136.284 84.3227 129.606 88.3403C122.927 92.358 121.381 102.045 126.153 109.977C130.924 117.909 140.207 121.082 146.885 117.064Z" fill="white" stroke="#263238" stroke-linecap="round" stroke-linejoin="round"/>
<path d="M141.346 100.557C143.399 99.0586 143.523 95.7327 141.622 93.1283C139.722 90.5238 136.517 89.6271 134.463 91.1253C132.41 92.6236 132.287 95.9495 134.187 98.5539C136.088 101.158 139.293 102.055 141.346 100.557Z" fill="white" stroke="#263238" stroke-linecap="round" stroke-linejoin="round"/>
<path d="M152.697 108.766C148.372 103.846 142.322 100.886 136.808 101.575C131.294 102.263 127.927 106.283 127.31 111.738C131.317 117.035 137.708 119.889 143.558 118.435C148.331 117.252 151.597 113.509 152.697 108.766Z" fill="white" stroke="#263238" stroke-linecap="round" stroke-linejoin="round"/>
<path d="M167.616 134.796H117.258L115.875 126.027H166.227L167.616 134.796Z" fill="white" stroke="#263238" stroke-linecap="round" stroke-linejoin="round"/>
<path d="M45.6024 198.195L225.777 181.435L226.607 180.493L48.2507 197.083L45.6024 198.195Z" fill="white" stroke="#263238" stroke-linecap="round" stroke-linejoin="round"/>
<path d="M101.174 239.86C101.174 239.86 104.964 236.253 108.66 234.564C112.356 232.875 127.945 226.996 145.736 225.583C163.526 224.171 205.609 223.382 208.428 223.294C211.247 223.206 214.507 222.941 214.855 221.976C215.202 221.011 215.367 216.679 215.367 216.679L202.896 221.293L201.649 220.116C201.649 220.116 187.913 218.792 162.731 220.817C137.55 222.841 122.225 226.702 111.926 229.974C101.628 233.246 101.174 239.86 101.174 239.86Z" fill="#263238" stroke="#263238" stroke-linecap="round" stroke-linejoin="round"/>
<path d="M86.2087 232.952L102.098 238.419C102.098 238.419 108.077 229.703 137.12 225.089C166.162 220.475 202.89 221.335 202.89 221.335L215.361 216.721C215.361 216.721 167.692 213.99 136.778 218.086C105.865 222.182 90.1399 228.167 86.2087 232.952Z" fill="#707070" stroke="#263238" stroke-linecap="round" stroke-linejoin="round"/>
<path d="M86.2088 232.952C86.2088 232.952 81.083 239.272 82.4542 239.784C83.8254 240.296 99.3617 240.467 100.562 239.955C100.907 239.813 101.221 239.605 101.484 239.341C101.748 239.077 101.957 238.764 102.098 238.419L86.2088 232.952Z" fill="#263238" stroke="#263238" stroke-linecap="round" stroke-linejoin="round"/>
<path d="M26.8353 240.096L29.9603 266.402C29.9603 271.257 38.111 275.194 48.1625 275.194C58.2141 275.194 66.3648 271.257 66.3648 266.402L69.4897 240.096H26.8353Z" fill="white" stroke="#263238" stroke-linecap="round" stroke-linejoin="round"/>
<path d="M48.1858 246.14C59.9645 246.14 69.513 243.436 69.513 240.102C69.513 236.767 59.9645 234.064 48.1858 234.064C36.4071 234.064 26.8586 236.767 26.8586 240.102C26.8586 243.436 36.4071 246.14 48.1858 246.14Z" fill="white" stroke="#263238" stroke-linecap="round" stroke-linejoin="round"/>
<path d="M48.186 244.81C57.3645 244.81 64.8052 242.702 64.8052 240.102C64.8052 237.502 57.3645 235.394 48.186 235.394C39.0074 235.394 31.5668 237.502 31.5668 240.102C31.5668 242.702 39.0074 244.81 48.186 244.81Z" fill="#263238"/>
<path d="M11.5345 181.099C13.506 181.641 18.008 180.882 18.008 180.882C18.008 180.882 16.6015 178.045 16.4897 177.88C15.1891 175.938 11.5404 172.954 9.02754 173.672C8.61327 173.804 8.23119 174.02 7.90607 174.309C7.58095 174.597 7.32005 174.95 7.14028 175.346C6.96051 175.742 6.86587 176.171 6.86252 176.605C6.85916 177.04 6.94716 177.47 7.1208 177.868C7.85054 179.581 9.8632 180.658 11.5345 181.099Z" fill="#263238"/>
<path d="M57.6431 175.433C57.6843 175.433 58.0315 172.296 58.0256 172.096C58.0256 169.742 56.6191 165.258 54.1239 164.445C53.7062 164.326 53.268 164.296 52.8378 164.357C52.4076 164.418 51.9951 164.568 51.6271 164.799C51.259 165.03 50.9438 165.336 50.7017 165.697C50.4596 166.058 50.2963 166.465 50.2222 166.894C49.8455 168.7 50.946 170.695 52.0936 172.008C53.4412 173.597 57.6372 175.433 57.6431 175.433Z" fill="#263238"/>
<path d="M68.8128 157.006C66.1999 157.1 63.6517 161.073 63.0161 163.321C62.9632 163.515 62.4276 166.652 62.5041 166.646H62.5571C62.151 167.269 61.7214 167.94 61.2683 168.688C60.4444 170.071 59.5028 171.63 58.6318 173.396C57.6511 175.304 56.7845 177.269 56.0365 179.281C55.1861 181.522 54.5362 183.834 54.0945 186.19C54.0945 186.219 54.0945 186.249 54.0945 186.278C54.0003 185.519 53.659 183.4 53.6119 183.241C52.9822 180.993 50.4458 177.015 47.8329 176.915C47.3984 176.91 46.9677 176.996 46.5687 177.168C46.1698 177.34 45.8116 177.595 45.5174 177.914C45.2232 178.234 44.9996 178.612 44.8611 179.024C44.7227 179.436 44.6725 179.872 44.7138 180.305C44.8315 182.153 46.4146 183.783 47.8682 184.742C49.5101 185.831 53.7532 186.507 54.0592 186.555C53.6681 188.963 53.44 191.395 53.3765 193.834C53.3294 195.253 53.3236 196.683 53.3412 198.119C53.2353 197.465 53.1352 196.883 53.1176 196.8C52.4879 194.552 49.9456 190.58 47.3326 190.474C46.8981 190.469 46.4675 190.556 46.0688 190.729C45.6702 190.902 45.3124 191.157 45.0187 191.477C44.725 191.798 44.5021 192.176 44.3644 192.588C44.2267 193.001 44.1773 193.437 44.2195 193.87C44.3372 195.712 45.9203 197.342 47.3738 198.307C48.8274 199.272 52.429 199.931 53.3765 200.072C53.3765 200.626 53.3765 201.179 53.4118 201.726C53.4766 204.368 53.5531 207.023 53.5531 209.594C53.5531 210.506 53.5178 211.407 53.4825 212.301C53.3883 211.713 53.3059 211.236 53.2882 211.16C52.6586 208.912 50.1221 204.933 47.5033 204.833C47.0691 204.83 46.6389 204.917 46.2406 205.091C45.8424 205.264 45.485 205.519 45.1915 205.839C44.898 206.159 44.6751 206.537 44.537 206.949C44.399 207.361 44.3489 207.797 44.3902 208.229C44.5079 210.071 46.0909 211.701 47.5445 212.666C48.9981 213.631 52.2525 214.22 53.3824 214.432C53.3177 215.35 53.2647 216.274 53.1647 217.162C53.0823 217.751 53.047 218.339 52.9293 218.957C52.8116 219.575 52.7292 220.134 52.6291 220.723C52.3937 221.847 52.1583 223.012 51.9053 224.101C51.7287 224.86 51.5522 225.584 51.3756 226.314C51.3756 225.401 51.3756 223.624 51.3756 223.477C51.0539 221.448 50.2171 219.535 48.9451 217.922C48.9156 217.695 48.8684 217.47 48.8039 217.251C48.6881 216.832 48.4856 216.443 48.2096 216.108C47.9336 215.773 47.5902 215.5 47.2017 215.306C46.8132 215.112 46.3884 215.002 45.9547 214.984C45.521 214.965 45.0882 215.037 44.6844 215.197C42.2833 216.227 41.33 220.846 41.5477 223.171C41.5477 223.306 41.8655 224.778 42.0715 225.707C41.8714 225.178 41.6772 224.666 41.483 224.13C41.0593 223.059 40.6061 222.006 40.1235 220.87L39.3585 219.234C39.1113 218.687 38.77 218.133 38.4993 217.574C37.8107 216.291 37.0457 215.026 36.2512 213.773C37.1869 213.402 40.4825 212.007 41.7066 210.771C42.9307 209.535 44.1253 207.593 43.8487 205.769C43.7985 205.338 43.6579 204.922 43.4361 204.548C43.2143 204.175 42.9163 203.852 42.5614 203.602C42.2066 203.351 41.8029 203.179 41.3767 203.095C40.9506 203.011 40.5115 203.018 40.0882 203.115C37.5518 203.768 35.9158 208.188 35.7745 210.518C35.7745 210.665 35.8569 212.348 35.9217 213.272C35.4391 212.519 34.9565 211.772 34.4445 211.024C32.9556 208.876 31.3843 206.746 29.8307 204.616C29.3481 203.962 28.8832 203.309 28.4124 202.65C28.7479 202.521 32.7026 200.979 34.0738 199.572C35.292 198.325 36.4925 196.394 36.2159 194.57C36.1639 194.139 36.0221 193.723 35.7995 193.35C35.5768 192.976 35.2784 192.654 34.9235 192.403C34.5685 192.153 34.165 191.979 33.7388 191.894C33.3127 191.809 32.8735 191.815 32.4495 191.91C29.919 192.563 28.283 196.989 28.1417 199.319C28.1417 199.496 28.2594 201.92 28.3242 202.532C27.2884 201.09 26.2703 199.643 25.3228 198.177C24.0325 196.201 22.8726 194.143 21.8507 192.016C22.0037 191.957 26.1408 190.362 27.5473 188.926C28.7596 187.673 29.9661 185.748 29.6895 183.918C29.6376 183.487 29.4958 183.071 29.2731 182.698C29.0504 182.325 28.7518 182.003 28.3967 181.753C28.0417 181.503 27.638 181.33 27.2119 181.246C26.7857 181.162 26.3467 181.168 25.9231 181.264C23.3925 181.917 21.7565 186.337 21.6153 188.673C21.6153 188.826 21.7035 190.668 21.7683 191.545L21.627 191.586C20.6543 189.42 19.8783 187.171 19.3084 184.866C18.9788 183.6 18.7199 182.37 18.5198 181.17C19.3201 180.952 22.9688 179.922 24.4048 178.763C25.8407 177.604 27.1589 175.867 27.0824 174.055C27.0795 173.62 26.9851 173.191 26.8054 172.796C26.6257 172.4 26.3647 172.047 26.0394 171.759C25.7141 171.47 25.3317 171.254 24.9173 171.123C24.5028 170.993 24.0655 170.951 23.6338 171.001C21.0444 171.371 18.9258 175.585 18.5374 177.892C18.5374 178.015 18.4374 179.31 18.3962 180.246C18.3079 179.704 18.2079 179.145 18.1372 178.622C17.8548 176.662 17.7194 174.855 17.6135 173.249C17.5605 172.336 17.5252 171.513 17.5076 170.736C18.1843 170.112 20.8679 167.57 21.5682 165.922C22.2685 164.274 22.6805 162.085 21.7624 160.484C21.5598 160.1 21.2785 159.762 20.9369 159.494C20.5953 159.226 20.201 159.032 19.7797 158.926C19.3584 158.82 18.9195 158.804 18.4915 158.879C18.0635 158.953 17.6561 159.117 17.2957 159.36C15.1712 160.884 15.2359 165.598 15.948 167.823C16.0069 168.017 17.3133 170.912 17.3487 170.883L17.3899 170.842C17.3899 171.589 17.3899 172.384 17.4428 173.26C17.5134 174.867 17.6135 176.685 17.8489 178.657C18.0857 180.784 18.4433 182.897 18.9199 184.983C19.447 187.322 20.1816 189.608 21.115 191.816L21.1504 191.892C20.6501 191.304 19.2024 189.732 19.073 189.627C17.3075 188.096 12.9997 186.184 10.7634 187.537C10.398 187.773 10.0864 188.082 9.84866 188.446C9.61095 188.81 9.45252 189.22 9.38368 189.649C9.31484 190.078 9.33714 190.517 9.44912 190.937C9.5611 191.357 9.76026 191.749 10.0336 192.086C11.1518 193.564 13.3704 194.046 15.1124 194.046C17.0838 194.046 20.9679 192.281 21.2739 192.145C22.2783 194.368 23.4304 196.521 24.7225 198.589C25.4641 199.802 26.2526 200.996 27.0765 202.185C26.6293 201.697 26.2232 201.267 26.1585 201.214C24.393 199.684 20.0852 197.765 17.8489 199.125C17.4836 199.36 17.1719 199.67 16.9342 200.034C16.6965 200.398 16.538 200.808 16.4692 201.237C16.4004 201.666 16.4227 202.105 16.5346 202.525C16.6466 202.944 16.8458 203.336 17.1191 203.674C18.2314 205.145 20.4559 205.634 22.1979 205.634C23.9398 205.634 27.3119 204.198 28.1888 203.803C28.5066 204.257 28.8126 204.716 29.1304 205.169C30.6428 207.334 32.1612 209.488 33.5853 211.642C34.0856 212.407 34.5563 213.172 35.0271 213.943C34.627 213.508 34.2856 213.149 34.2327 213.096C32.4672 211.566 28.1535 209.653 25.9172 211.007C25.5453 211.233 25.2252 211.535 24.9779 211.894C24.7305 212.252 24.5613 212.658 24.4814 213.086C24.4014 213.514 24.4125 213.954 24.5139 214.378C24.6153 214.801 24.8047 215.199 25.0698 215.544C26.182 217.021 28.4007 217.504 30.1485 217.51C31.8963 217.515 34.933 216.209 35.9805 215.744C36.4337 216.544 36.8986 217.345 37.3046 218.139C37.5695 218.687 37.8931 219.199 38.0991 219.764L38.8288 221.417C39.2585 222.488 39.6998 223.583 40.0941 224.636C40.3648 225.366 40.6179 226.066 40.8709 226.773C40.3766 226.007 39.3879 224.53 39.2879 224.419C37.7754 222.653 33.8031 220.093 31.3902 221.094C30.9932 221.271 30.6381 221.531 30.348 221.855C30.0579 222.179 29.8394 222.56 29.7067 222.975C29.574 223.389 29.5301 223.826 29.5778 224.259C29.6256 224.691 29.7639 225.108 29.9837 225.484C30.8606 227.108 32.9792 227.926 34.6917 228.191C36.5926 228.479 40.5414 227.39 41.0357 227.249C41.4477 228.426 41.842 229.556 42.2127 230.639C43.4368 234.347 44.3195 237.489 44.908 239.708L46.6735 239.449C46.6563 239.401 46.6425 239.352 46.6323 239.302C45.985 237.071 45.0199 233.893 43.6898 230.139C43.2779 228.962 42.8071 227.691 42.3128 226.402C43.4529 225.741 44.5533 225.014 45.6083 224.224C47.1443 225.466 50.7812 226.655 51.252 226.802C50.9519 228.008 50.6636 229.156 50.3516 230.268C49.3277 234.04 48.3272 237.142 47.5975 239.319L49.5219 239.037C50.181 236.889 51.0108 234.035 51.8759 230.663C52.1819 229.444 52.4644 228.132 52.7821 226.784C53.2882 226.814 57.3842 227.049 59.185 226.361C60.8093 225.731 62.716 224.483 63.2221 222.712C63.3571 222.299 63.4036 221.862 63.3587 221.43C63.3137 220.998 63.1784 220.58 62.9613 220.204C62.7443 219.827 62.4504 219.501 62.0989 219.246C61.7474 218.99 61.3461 218.812 60.9211 218.722C58.3493 218.257 55.0067 221.582 53.9062 223.642C53.8414 223.765 53.2824 225.16 52.941 226.049C53.0646 225.496 53.1823 224.96 53.3 224.395C53.5354 223.271 53.7414 222.141 53.965 220.929C54.0474 220.34 54.1357 219.752 54.224 219.163C54.3122 218.575 54.3593 217.927 54.4299 217.304C54.5594 215.856 54.6183 214.361 54.6477 212.89C55.6364 213.096 59.1438 213.773 60.8563 213.402C62.5689 213.031 64.6286 212.084 65.3995 210.406C65.5951 210.019 65.7068 209.594 65.7276 209.16C65.7483 208.727 65.6776 208.293 65.52 207.889C65.3624 207.484 65.1214 207.117 64.8127 206.812C64.504 206.507 64.1345 206.27 63.7282 206.116C61.2565 205.263 57.4489 208.052 56.0777 209.918C55.9895 210.036 55.1361 211.489 54.683 212.272C54.683 211.377 54.683 210.506 54.683 209.583C54.63 206.97 54.4947 204.327 54.3711 201.685C54.3299 200.879 54.3005 200.072 54.271 199.266C54.6183 199.343 58.7731 200.243 60.6916 199.825C62.3923 199.454 64.4638 198.507 65.2348 196.83C65.4312 196.442 65.5438 196.018 65.565 195.584C65.5862 195.15 65.5157 194.716 65.3579 194.311C65.2002 193.906 64.9589 193.539 64.6496 193.234C64.3404 192.929 63.9703 192.692 63.5634 192.54C61.0917 191.686 57.2842 194.47 55.913 196.341C55.807 196.483 54.5771 198.572 54.2946 199.119C54.224 197.354 54.171 195.588 54.1945 193.823C54.2067 191.46 54.3738 189.101 54.6948 186.761C54.8537 186.796 59.185 187.749 61.1682 187.349C62.869 186.978 64.9405 186.031 65.7173 184.354C65.9127 183.966 66.0242 183.541 66.0446 183.107C66.0649 182.673 65.9937 182.239 65.8355 181.834C65.6773 181.43 65.4357 181.063 65.1263 180.758C64.817 180.453 64.4469 180.216 64.0401 180.063C61.5684 179.21 57.7608 181.994 56.3602 183.865C56.2661 183.989 55.3303 185.578 54.9066 186.349L54.7654 186.302C55.1481 183.958 55.7389 181.654 56.5309 179.416C56.9546 178.18 57.4254 177.021 57.908 175.885C58.6966 176.144 62.3099 177.297 64.1225 177.103C65.9351 176.909 68.0184 176.215 68.9717 174.632C69.2103 174.269 69.3697 173.86 69.4395 173.431C69.5093 173.002 69.488 172.564 69.3769 172.144C69.2658 171.724 69.0675 171.333 68.7949 170.995C68.5223 170.657 68.1815 170.38 67.7947 170.183C65.4407 169.064 61.3213 171.413 59.7441 173.125C59.6617 173.219 58.879 174.261 58.3199 175.026C58.5494 174.526 58.7731 174.002 59.0026 173.525C59.8441 171.76 60.7328 170.153 61.5272 168.758C61.9863 167.964 62.4159 167.258 62.8278 166.604C63.7341 166.457 67.3769 165.816 68.8717 164.839C70.3665 163.862 71.9142 162.255 72.0319 160.413C72.0772 159.971 72.0266 159.524 71.8835 159.103C71.7403 158.681 71.5081 158.296 71.2026 157.973C70.8971 157.649 70.5255 157.396 70.1131 157.229C69.7007 157.062 69.2572 156.986 68.8128 157.006Z" fill="#263238"/>
<defs>
<linearGradient id="paint0_linear_456_35" x1="363.218" y1="39.2162" x2="364.207" y2="96.813" gradientUnits="userSpaceOnUse">
<stop stop-color="#0B8CD2"/>
<stop offset="1" stop-color="#FCFCFC"/>
</linearGradient>
<linearGradient id="paint1_linear_456_35" x1="247.354" y1="66.1576" x2="248.343" y2="123.754" gradientUnits="userSpaceOnUse">
<stop stop-color="#0B8CD2"/>
<stop offset="1" stop-color="#FCFCFC"/>
</linearGradient>
<linearGradient id="paint2_linear_456_35" x1="363.218" y1="87.5668" x2="364.207" y2="145.164" gradientUnits="userSpaceOnUse">
<stop stop-color="#0B8CD2"/>
<stop offset="1" stop-color="#FCFCFC"/>
</linearGradient>
<linearGradient id="paint3_linear_456_35" x1="363.218" y1="135.923" x2="364.207" y2="193.52" gradientUnits="userSpaceOnUse">
<stop stop-color="#0B8CD2"/>
<stop offset="1" stop-color="#FCFCFC"/>
</linearGradient>
<linearGradient id="paint4_linear_456_35" x1="300.648" y1="69.5509" x2="304.134" y2="128.145" gradientUnits="userSpaceOnUse">
<stop stop-color="#0B8CD2"/>
<stop offset="1" stop-color="#FCFCFC"/>
</linearGradient>
<linearGradient id="paint5_linear_456_35" x1="261.943" y1="190.8" x2="261.958" y2="199.817" gradientUnits="userSpaceOnUse">
<stop stop-color="#0B8CD2"/>
<stop offset="1" stop-color="#FCFCFC"/>
</linearGradient>
<linearGradient id="paint6_linear_456_35" x1="317.715" y1="195.685" x2="317.73" y2="204.918" gradientUnits="userSpaceOnUse">
<stop stop-color="#0B8CD2"/>
<stop offset="1" stop-color="#FCFCFC"/>
</linearGradient>
<linearGradient id="paint7_linear_456_35" x1="285.937" y1="103.057" x2="286.236" y2="121.685" gradientUnits="userSpaceOnUse">
<stop stop-color="#0B8CD2"/>
<stop offset="1" stop-color="#FCFCFC"/>
</linearGradient>
</defs>
</svg>
