<svg width="25" height="25" viewBox="0 0 25 25" fill="none" xmlns="http://www.w3.org/2000/svg">
<g clip-path="url(#clip0_203_271)">
<path fill-rule="evenodd" clip-rule="evenodd" d="M22.1594 10.8149C17.0042 5.65973 8.64735 5.65973 3.49215 10.8149C3.26583 11.0335 2.96271 11.1545 2.64807 11.1517C2.33343 11.149 2.03246 11.0228 1.80997 10.8003C1.58748 10.5778 1.46128 10.2768 1.45854 9.96221C1.45581 9.64757 1.57676 9.34445 1.79535 9.11813C7.88655 3.02573 17.7649 3.02573 23.8561 9.11813C24.0747 9.34445 24.1957 9.64757 24.193 9.96221C24.1902 10.2768 24.064 10.5778 23.8415 10.8003C23.619 11.0228 23.3181 11.149 23.0034 11.1517C22.6888 11.1545 22.3857 11.0335 22.1594 10.8149ZM18.7658 14.2085C17.9857 13.4284 17.0597 12.8096 16.0405 12.3874C15.0213 11.9652 13.9289 11.7479 12.8258 11.7479C11.7226 11.7479 10.6302 11.9652 9.61101 12.3874C8.59182 12.8096 7.66577 13.4284 6.88575 14.2085C6.65943 14.4271 6.35631 14.5481 6.04167 14.5453C5.72703 14.5426 5.42606 14.4164 5.20357 14.1939C4.98108 13.9714 4.85488 13.6704 4.85214 13.3558C4.84941 13.0412 4.97036 12.7381 5.18895 12.5117C6.19182 11.5088 7.38241 10.7133 8.69274 10.1705C10.0031 9.62779 11.4075 9.34843 12.8258 9.34843C14.244 9.34843 15.6484 9.62779 16.9588 10.1705C18.2691 10.7133 19.4597 11.5088 20.4626 12.5117C20.6811 12.7381 20.8021 13.0412 20.7994 13.3558C20.7966 13.6704 20.6704 13.9714 20.4479 14.1939C20.2254 14.4164 19.9245 14.5426 19.6098 14.5453C19.2952 14.5481 18.9921 14.4271 18.7658 14.2085ZM15.3698 17.6045C14.6947 16.9296 13.7791 16.5505 12.8245 16.5505C11.87 16.5505 10.9545 16.9296 10.2794 17.6045C10.0542 17.8297 9.74879 17.9562 9.43035 17.9562C9.11191 17.9562 8.80652 17.8297 8.58135 17.6045C8.35618 17.3794 8.22968 17.074 8.22968 16.7555C8.22968 16.4371 8.35618 16.1317 8.58135 15.9065C9.13852 15.3492 9.80003 14.9071 10.5281 14.6055C11.2561 14.3039 12.0365 14.1486 12.8245 14.1486C13.6126 14.1486 14.393 14.3039 15.121 14.6055C15.8491 14.9071 16.5106 15.3492 17.0677 15.9065C17.2929 16.1317 17.4194 16.4371 17.4194 16.7555C17.4194 17.074 17.2929 17.3794 17.0677 17.6045C16.8426 17.8297 16.5372 17.9562 16.2188 17.9562C15.9003 17.9562 15.5949 17.8297 15.3698 17.6045ZM11.6258 20.1485C11.6258 19.8303 11.7522 19.525 11.9772 19.3C12.2023 19.075 12.5075 18.9485 12.8258 18.9485H12.8378C13.156 18.9485 13.4612 19.075 13.6863 19.3C13.9113 19.525 14.0378 19.8303 14.0378 20.1485C14.0378 20.4668 13.9113 20.772 13.6863 20.9971C13.4612 21.2221 13.156 21.3485 12.8378 21.3485H12.8258C12.5075 21.3485 12.2023 21.2221 11.9772 20.9971C11.7522 20.772 11.6258 20.4668 11.6258 20.1485Z" fill="white"/>
</g>
<defs>
<clipPath id="clip0_203_271">
<rect width="24" height="24" fill="white" transform="translate(0.825684 0.948486)"/>
</clipPath>
</defs>
</svg>
